# xmcd
#
# Track frame offsets:
#	150
#	75580
#	127357
#	138864
#	142135
#	153482
#	160044
#	178257
#	185909
#	193554
#	203044
#	207979
#	240179
#
# Disc length: 3389 seconds
#
# Revision: 0
# Processed by: cddbd v1.5.2PL0 Copyright (c) Steve Scherf et al.
# Submitted via: dBpowerAMP V4.0
#
DISCID=bd0d3b0d
DTITLE=Wolf Eyes/Prurient - [Hospital HOS125] The Warriors
DYEAR=2005
DGENRE=
TTITLE0=The Terror Tank
TTITLE1=Human Animal
TTITLE2=Straining For Air
TTITLE3=Rhythm Of Shovels
TTITLE4=Lime
TTITLE5=Trapezoid/Spectre Of Death
TTITLE6=Delirium Tremens
TTITLE7=Ashen Morning Glory
TTITLE8=Afternoon Light On Sapphires
TTITLE9=Sulphur
TTITLE10=Early Morning Rites
TTITLE11=Black Cowboy Boots
TTITLE12=Striped Swimsuit
EXTD=
EXTT0=
EXTT1=
EXTT2=
EXTT3=
EXTT4=
EXTT5=
EXTT6=
EXTT7=
EXTT8=
EXTT9=
EXTT10=
EXTT11=
EXTT12=
PLAYORDER=
